<svg xmlns="http://www.w3.org/2000/svg" xmlns:xlink="http://www.w3.org/1999/xlink" width="178" zoomAndPan="magnify" viewBox="0 0 133.5 30.000001" height="40" preserveAspectRatio="xMidYMid meet" version="1.0"><defs><g/><clipPath id="0258818b12"><path d="M 0.90625 0.390625 L 28.714844 0.390625 L 28.714844 28.507812 L 0.90625 28.507812 Z M 0.90625 0.390625 " clip-rule="nonzero"/></clipPath><clipPath id="52139917b9"><path d="M 34 13 L 118.242188 13 L 118.242188 25 L 34 25 Z M 34 13 " clip-rule="nonzero"/></clipPath><clipPath id="64dde00604"><rect x="0" width="85" y="0" height="12"/></clipPath><clipPath id="fa5d6ccb5d"><rect x="0" width="119" y="0" height="29"/></clipPath></defs><g transform="matrix(1, 0, 0, 1, 7, 0.00000000000000569)"><g clip-path="url(#fa5d6ccb5d)"><g clip-path="url(#0258818b12)"><path fill="#ffffff" d="M 6.675781 19.753906 C 7.820312 20.445312 8.726562 19.089844 7.988281 18.132812 C 6.976562 16.925781 5.546875 18.972656 6.675781 19.753906 Z M 23.800781 8.878906 C 24.980469 9.882812 24.234375 11.84375 22.746094 12.003906 C 22.898438 12.292969 22.898438 12.492188 22.910156 12.804688 C 22.871094 14.226562 23.410156 16.003906 22.785156 17.292969 L 22.789062 17.292969 L 22.789062 17.503906 C 23.527344 17.347656 24.183594 17.902344 24.335938 18.605469 C 24.789062 20.558594 22.191406 21.679688 21 20.117188 C 20.363281 20.800781 19.753906 20.960938 19.085938 21.480469 C 18.292969 21.949219 17.519531 22.679688 16.570312 22.746094 C 17.066406 23.777344 16.304688 25.066406 15.210938 25.253906 C 13.742188 25.5625 12.441406 23.964844 13.160156 22.609375 C 12.300781 22.449219 11.527344 21.820312 10.722656 21.492188 C 10.011719 21.101562 9.171875 20.820312 8.679688 20.144531 C 7.414062 21.773438 4.707031 20.378906 5.402344 18.394531 C 5.625 17.734375 6.296875 17.171875 7.019531 17.390625 L 7.019531 17.351562 C 6.988281 17.304688 6.941406 17.308594 6.957031 17.199219 C 6.898438 16.84375 6.734375 16.421875 6.78125 16.046875 C 6.761719 14.707031 6.707031 13.304688 6.945312 11.996094 C 4.019531 11.34375 5.195312 7.046875 8.609375 9.003906 C 9.574219 8.121094 10.769531 7.492188 11.953125 6.914062 C 11.953125 6.914062 12.726562 6.507812 12.726562 6.507812 C 12.761719 6.46875 12.785156 6.507812 12.808594 6.496094 C 12.808594 6.496094 13.082031 6.390625 13.082031 6.390625 C 12.757812 5.59375 13.113281 4.488281 13.929688 4.152344 C 14.367188 3.976562 15.675781 4.195312 16.136719 4.453125 C 16.710938 4.9375 16.875 5.804688 16.574219 6.484375 C 17.613281 6.652344 18.496094 7.414062 19.46875 7.785156 C 19.949219 8.050781 20.8125 8.441406 21.109375 8.914062 C 21.664062 8.148438 23.058594 8.699219 23.800781 8.878906 Z M 21.996094 9.167969 C 21.398438 9.695312 21.449219 10.8125 22.289062 11.050781 C 23.253906 11.3125 24 10.1875 23.367188 9.394531 C 23.410156 9.175781 22.78125 8.679688 21.996094 9.167969 Z M 21.996094 18.015625 C 21.40625 18.523438 21.445312 19.671875 22.289062 19.898438 C 24.3125 20.273438 23.730469 16.980469 21.996094 18.015625 Z M 22.292969 17.382812 L 22.292969 17.292969 C 22.28125 17.277344 22.273438 17.25 22.28125 17.199219 C 22.289062 17.140625 22.238281 17.09375 22.238281 17.007812 C 22.242188 16.855469 22.199219 16.835938 22.195312 16.804688 C 22.027344 16.175781 22.125 15.429688 22.089844 14.78125 C 22.054688 14.457031 22.101562 13.640625 22.140625 13.292969 C 22.140625 13.292969 22.175781 12.421875 22.175781 12.421875 C 22.160156 12.371094 22.207031 12.367188 22.210938 12.347656 C 22.214844 12.296875 22.242188 12.058594 22.273438 11.996094 C 21.089844 11.875 20.269531 10.554688 20.769531 9.457031 C 19.605469 9.074219 18.4375 8.328125 17.4375 7.660156 C 17.144531 7.492188 16.570312 7.097656 16.332031 6.871094 C 16.066406 7.199219 15.632812 7.480469 15.21875 7.554688 C 15.535156 9.191406 15.433594 11.03125 15.210938 12.679688 C 15.183594 12.734375 15.257812 12.820312 15.207031 12.839844 C 15.148438 12.878906 15.21875 13.035156 15.117188 13.078125 C 16.285156 12.839844 17 14.210938 16.625 15.203125 C 16.710938 15.207031 16.953125 15.324219 16.976562 15.308594 C 18.402344 15.890625 19.886719 16.820312 21.097656 17.773438 C 21.433594 17.429688 21.761719 17.285156 22.292969 17.382812 Z M 16.269531 22.273438 C 17.546875 21.15625 19.207031 20.316406 20.746094 19.660156 C 20.550781 19.195312 20.605469 18.632812 20.824219 18.183594 C 19.71875 17.800781 17.015625 16.578125 16.335938 15.714844 C 15.628906 16.636719 14.167969 16.671875 13.417969 15.789062 C 12.132812 16.894531 10.441406 17.675781 8.921875 18.371094 C 9.070312 18.761719 9.074219 19.21875 8.957031 19.625 C 9.046875 19.632812 9.285156 19.746094 9.316406 19.734375 C 10.324219 20.105469 11.386719 20.78125 12.269531 21.363281 C 12.269531 21.363281 13.121094 21.90625 13.121094 21.90625 C 13.175781 21.925781 13.148438 21.960938 13.167969 21.972656 C 13.210938 22.007812 13.394531 22.140625 13.4375 22.195312 C 13.765625 21.863281 14.023438 21.75 14.535156 21.78125 C 14.972656 21.820312 16.046875 22.023438 16.269531 22.273438 Z M 14.332031 22.4375 C 13.683594 23.007812 13.832031 24.207031 14.753906 24.355469 C 16.65625 24.460938 16.042969 21.488281 14.332031 22.4375 Z M 7.429688 17.503906 C 7.433594 17.167969 7.742188 16.914062 7.710938 16.550781 C 7.730469 16.136719 7.773438 15.519531 7.71875 15.117188 C 7.570312 14.105469 7.761719 12.972656 7.421875 12.003906 C 8.589844 11.871094 9.425781 10.558594 8.910156 9.476562 C 9.695312 9.429688 10.375 8.886719 11.011719 8.472656 C 11.757812 7.917969 12.691406 7.535156 13.335938 6.84375 C 13.628906 7.242188 14.097656 7.492188 14.59375 7.570312 C 14.246094 8.460938 14.46875 9.566406 14.503906 10.5 C 14.582031 11.289062 14.429688 12.226562 14.863281 12.933594 C 13.539062 12.652344 12.625 14.046875 13.074219 15.214844 C 12.28125 15.355469 11.609375 15.914062 10.9375 16.339844 C 10.222656 16.890625 9.25 17.226562 8.71875 17.980469 C 8.464844 17.550781 7.898438 17.398438 7.429688 17.503906 Z M 14.523438 13.457031 C 14.441406 13.480469 14.429688 13.53125 14.332031 13.589844 C 14.171875 13.691406 14.203125 13.738281 14.171875 13.765625 C 14.089844 13.855469 14.109375 13.925781 14.042969 14.015625 C 13.640625 14.777344 14.335938 15.765625 15.199219 15.457031 C 16.539062 15.082031 15.890625 13.007812 14.523438 13.457031 Z M 6.960938 9 C 6.085938 9.320312 6.003906 10.789062 6.964844 11.050781 C 7.867188 11.292969 8.660156 10.289062 8.089844 9.484375 C 8.070312 9.453125 8.03125 9.445312 8.042969 9.394531 C 8.089844 9.175781 7.433594 8.859375 6.960938 9 Z M 14.523438 4.605469 C 14.441406 4.632812 14.429688 4.679688 14.332031 4.742188 C 14.164062 4.851562 14.207031 4.886719 14.171875 4.917969 C 14.089844 5.007812 14.109375 5.078125 14.042969 5.167969 C 13.640625 5.929688 14.335938 6.917969 15.199219 6.609375 C 16.527344 6.253906 15.886719 4.132812 14.523438 4.605469 Z M 5.566406 5.441406 C 1.242188 9.808594 0.578125 16.804688 3.898438 21.949219 C 3.910156 21.921875 3.992188 21.023438 4.027344 21.054688 C 4.054688 21.042969 4.0625 20.839844 4.121094 20.753906 C 4.148438 20.710938 4.082031 20.632812 4.132812 20.621094 C 4.199219 20.605469 4.125 20.5 4.207031 20.449219 C 4.277344 20.402344 4.269531 20.394531 4.308594 20.464844 C 4.308594 20.464844 4.34375 20.464844 4.34375 20.464844 C 4.394531 20.484375 4.386719 20.453125 4.402344 20.453125 C 4.917969 21.09375 4.640625 22 4.707031 22.746094 C 4.761719 23.089844 4.507812 23.457031 4.148438 23.339844 C 3.410156 23.097656 2 23.011719 1.921875 22.046875 C 1.984375 22.011719 1.960938 22 1.980469 22.003906 C 2.011719 22.011719 2.015625 21.964844 2.050781 21.96875 C 2.117188 21.976562 2.152344 21.917969 2.171875 21.925781 C 2.355469 21.980469 2.324219 21.925781 2.40625 21.953125 C 2.859375 21.949219 3.292969 22.09375 3.726562 22.246094 C -6.035156 9.890625 11.925781 -7.097656 23.226562 3.980469 C 17.867188 0.40625 10.097656 0.570312 5.566406 5.441406 Z M 28.800781 14.558594 C 29.453125 25.527344 14.414062 33.5625 6.59375 25.121094 C 18.910156 33.332031 33.652344 19.980469 25.921875 7.152344 L 25.820312 7.996094 C 25.832031 8.039062 25.785156 8.039062 25.78125 8.058594 C 25.769531 8.101562 25.734375 8.296875 25.699219 8.34375 C 25.667969 8.390625 25.738281 8.46875 25.6875 8.480469 C 25.617188 8.527344 25.699219 8.648438 25.550781 8.6875 L 25.511719 8.636719 C 25.480469 8.65625 25.484375 8.628906 25.449219 8.628906 C 25.425781 8.628906 25.410156 8.707031 25.34375 8.554688 C 24.976562 7.949219 25.121094 7.261719 25.128906 6.59375 C 25.074219 6.1875 25.113281 5.628906 25.6875 5.765625 C 26.390625 6 27.859375 6.113281 27.898438 7.050781 C 27.839844 7.085938 27.859375 7.101562 27.839844 7.09375 C 27.8125 7.085938 27.804688 7.136719 27.769531 7.132812 C 27.683594 7.121094 27.6875 7.210938 27.582031 7.15625 C 27.535156 7.132812 27.476562 7.167969 27.414062 7.144531 C 26.960938 7.152344 26.523438 7.003906 26.09375 6.855469 C 27.890625 9.015625 28.800781 11.765625 28.800781 14.558594 Z M 28.800781 14.558594 " fill-opacity="1" fill-rule="evenodd"/></g><g fill="#ffffff" fill-opacity="1"><g transform="translate(34.720597, 12.013777)"><g><path d="M 6.5 -6.28125 L 6.5 0 L 5.046875 0 L 5.046875 -2.578125 L 2.203125 -2.578125 L 2.203125 0 L 0.75 0 L 0.75 -6.28125 L 2.203125 -6.28125 L 2.203125 -3.796875 L 5.046875 -3.796875 L 5.046875 -6.28125 Z M 6.5 -6.28125 "/></g></g></g><g fill="#ffffff" fill-opacity="1"><g transform="translate(41.960547, 12.013777)"><g><path d="M 3.53125 0.109375 C 2.632812 0.109375 1.9375 -0.132812 1.4375 -0.625 C 0.9375 -1.125 0.6875 -1.835938 0.6875 -2.765625 L 0.6875 -6.28125 L 2.140625 -6.28125 L 2.140625 -2.8125 C 2.140625 -1.6875 2.609375 -1.125 3.546875 -1.125 C 3.992188 -1.125 4.335938 -1.257812 4.578125 -1.53125 C 4.816406 -1.8125 4.9375 -2.238281 4.9375 -2.8125 L 4.9375 -6.28125 L 6.375 -6.28125 L 6.375 -2.765625 C 6.375 -1.835938 6.125 -1.125 5.625 -0.625 C 5.125 -0.132812 4.425781 0.109375 3.53125 0.109375 Z M 3.53125 0.109375 "/></g></g></g><g fill="#ffffff" fill-opacity="1"><g transform="translate(49.021291, 12.013777)"><g><path d="M 5.359375 -3.265625 C 5.710938 -3.148438 5.988281 -2.957031 6.1875 -2.6875 C 6.394531 -2.425781 6.5 -2.101562 6.5 -1.71875 C 6.5 -1.164062 6.285156 -0.738281 5.859375 -0.4375 C 5.429688 -0.144531 4.804688 0 3.984375 0 L 0.75 0 L 0.75 -6.28125 L 3.8125 -6.28125 C 4.570312 -6.28125 5.15625 -6.132812 5.5625 -5.84375 C 5.976562 -5.550781 6.1875 -5.148438 6.1875 -4.640625 C 6.1875 -4.335938 6.113281 -4.066406 5.96875 -3.828125 C 5.820312 -3.585938 5.617188 -3.398438 5.359375 -3.265625 Z M 2.1875 -5.1875 L 2.1875 -3.703125 L 3.625 -3.703125 C 3.988281 -3.703125 4.265625 -3.765625 4.453125 -3.890625 C 4.640625 -4.015625 4.734375 -4.203125 4.734375 -4.453125 C 4.734375 -4.691406 4.640625 -4.875 4.453125 -5 C 4.265625 -5.125 3.988281 -5.1875 3.625 -5.1875 Z M 3.890625 -1.09375 C 4.265625 -1.09375 4.550781 -1.15625 4.75 -1.28125 C 4.945312 -1.40625 5.046875 -1.597656 5.046875 -1.859375 C 5.046875 -2.378906 4.660156 -2.640625 3.890625 -2.640625 L 2.1875 -2.640625 L 2.1875 -1.09375 Z M 3.890625 -1.09375 "/></g></g></g><g fill="#ffffff" fill-opacity="1"><g transform="translate(55.875945, 12.013777)"><g/></g></g><g fill="#ffffff" fill-opacity="1"><g transform="translate(58.411721, 12.013777)"><g><path d="M 2.203125 -5.109375 L 2.203125 -3.453125 L 5.109375 -3.453125 L 5.109375 -2.28125 L 2.203125 -2.28125 L 2.203125 0 L 0.75 0 L 0.75 -6.28125 L 5.484375 -6.28125 L 5.484375 -5.109375 Z M 2.203125 -5.109375 "/></g></g></g><g fill="#ffffff" fill-opacity="1"><g transform="translate(64.137372, 12.013777)"><g><path d="M 0.75 -6.28125 L 2.203125 -6.28125 L 2.203125 0 L 0.75 0 Z M 0.75 -6.28125 "/></g></g></g><g fill="#ffffff" fill-opacity="1"><g transform="translate(67.07636, 12.013777)"><g><path d="M 6.5 -6.28125 L 6.5 0 L 5.3125 0 L 2.171875 -3.8125 L 2.171875 0 L 0.75 0 L 0.75 -6.28125 L 1.953125 -6.28125 L 5.0625 -2.46875 L 5.0625 -6.28125 Z M 6.5 -6.28125 "/></g></g></g><g fill="#ffffff" fill-opacity="1"><g transform="translate(74.316311, 12.013777)"><g><path d="M 4.875 -1.34375 L 1.96875 -1.34375 L 1.40625 0 L -0.078125 0 L 2.71875 -6.28125 L 4.15625 -6.28125 L 6.953125 0 L 5.4375 0 Z M 4.421875 -2.453125 L 3.421875 -4.859375 L 2.4375 -2.453125 Z M 4.421875 -2.453125 "/></g></g></g><g fill="#ffffff" fill-opacity="1"><g transform="translate(81.179927, 12.013777)"><g><path d="M 6.5 -6.28125 L 6.5 0 L 5.3125 0 L 2.171875 -3.8125 L 2.171875 0 L 0.75 0 L 0.75 -6.28125 L 1.953125 -6.28125 L 5.0625 -2.46875 L 5.0625 -6.28125 Z M 6.5 -6.28125 "/></g></g></g><g fill="#ffffff" fill-opacity="1"><g transform="translate(88.419878, 12.013777)"><g><path d="M 3.75 0.109375 C 3.113281 0.109375 2.535156 -0.0234375 2.015625 -0.296875 C 1.492188 -0.578125 1.082031 -0.960938 0.78125 -1.453125 C 0.488281 -1.953125 0.34375 -2.515625 0.34375 -3.140625 C 0.34375 -3.765625 0.488281 -4.320312 0.78125 -4.8125 C 1.082031 -5.300781 1.492188 -5.6875 2.015625 -5.96875 C 2.535156 -6.25 3.117188 -6.390625 3.765625 -6.390625 C 4.304688 -6.390625 4.796875 -6.289062 5.234375 -6.09375 C 5.671875 -5.90625 6.039062 -5.632812 6.34375 -5.28125 L 5.40625 -4.40625 C 4.976562 -4.894531 4.453125 -5.140625 3.828125 -5.140625 C 3.441406 -5.140625 3.09375 -5.054688 2.78125 -4.890625 C 2.476562 -4.722656 2.242188 -4.484375 2.078125 -4.171875 C 1.910156 -3.867188 1.828125 -3.523438 1.828125 -3.140625 C 1.828125 -2.753906 1.910156 -2.40625 2.078125 -2.09375 C 2.242188 -1.789062 2.476562 -1.550781 2.78125 -1.375 C 3.09375 -1.207031 3.441406 -1.125 3.828125 -1.125 C 4.453125 -1.125 4.976562 -1.375 5.40625 -1.875 L 6.34375 -1.015625 C 6.039062 -0.648438 5.664062 -0.367188 5.21875 -0.171875 C 4.78125 0.015625 4.289062 0.109375 3.75 0.109375 Z M 3.75 0.109375 "/></g></g></g><g fill="#ffffff" fill-opacity="1"><g transform="translate(94.987804, 12.013777)"><g><path d="M 0.75 -6.28125 L 2.203125 -6.28125 L 2.203125 0 L 0.75 0 Z M 0.75 -6.28125 "/></g></g></g><g fill="#ffffff" fill-opacity="1"><g transform="translate(97.926792, 12.013777)"><g><path d="M 5.609375 -1.171875 L 5.609375 0 L 0.75 0 L 0.75 -6.28125 L 5.484375 -6.28125 L 5.484375 -5.109375 L 2.1875 -5.109375 L 2.1875 -3.75 L 5.109375 -3.75 L 5.109375 -2.625 L 2.1875 -2.625 L 2.1875 -1.171875 Z M 5.609375 -1.171875 "/></g></g></g><g fill="#ffffff" fill-opacity="1"><g transform="translate(103.939176, 12.013777)"><g><path d="M 4.75 0 L 3.53125 -1.75 L 2.203125 -1.75 L 2.203125 0 L 0.75 0 L 0.75 -6.28125 L 3.46875 -6.28125 C 4.019531 -6.28125 4.5 -6.1875 4.90625 -6 C 5.320312 -5.8125 5.640625 -5.546875 5.859375 -5.203125 C 6.078125 -4.867188 6.1875 -4.46875 6.1875 -4 C 6.1875 -3.53125 6.070312 -3.125 5.84375 -2.78125 C 5.625 -2.445312 5.304688 -2.191406 4.890625 -2.015625 L 6.3125 0 Z M 4.71875 -4 C 4.71875 -4.351562 4.601562 -4.625 4.375 -4.8125 C 4.144531 -5 3.8125 -5.09375 3.375 -5.09375 L 2.203125 -5.09375 L 2.203125 -2.90625 L 3.375 -2.90625 C 3.8125 -2.90625 4.144531 -3 4.375 -3.1875 C 4.601562 -3.382812 4.71875 -3.65625 4.71875 -4 Z M 4.71875 -4 "/></g></g></g><g fill="#ffffff" fill-opacity="1"><g transform="translate(110.525022, 12.013777)"><g><path d="M 3.78125 0.109375 C 3.132812 0.109375 2.546875 -0.03125 2.015625 -0.3125 C 1.492188 -0.59375 1.082031 -0.976562 0.78125 -1.46875 C 0.488281 -1.96875 0.34375 -2.523438 0.34375 -3.140625 C 0.34375 -3.753906 0.488281 -4.304688 0.78125 -4.796875 C 1.082031 -5.296875 1.492188 -5.6875 2.015625 -5.96875 C 2.546875 -6.25 3.132812 -6.390625 3.78125 -6.390625 C 4.4375 -6.390625 5.023438 -6.25 5.546875 -5.96875 C 6.066406 -5.6875 6.472656 -5.296875 6.765625 -4.796875 C 7.066406 -4.304688 7.21875 -3.753906 7.21875 -3.140625 C 7.21875 -2.523438 7.066406 -1.96875 6.765625 -1.46875 C 6.472656 -0.976562 6.066406 -0.59375 5.546875 -0.3125 C 5.023438 -0.03125 4.4375 0.109375 3.78125 0.109375 Z M 3.78125 -1.125 C 4.15625 -1.125 4.488281 -1.207031 4.78125 -1.375 C 5.082031 -1.550781 5.316406 -1.789062 5.484375 -2.09375 C 5.660156 -2.40625 5.75 -2.753906 5.75 -3.140625 C 5.75 -3.523438 5.660156 -3.867188 5.484375 -4.171875 C 5.316406 -4.484375 5.082031 -4.722656 4.78125 -4.890625 C 4.488281 -5.054688 4.15625 -5.140625 3.78125 -5.140625 C 3.414062 -5.140625 3.082031 -5.054688 2.78125 -4.890625 C 2.476562 -4.722656 2.242188 -4.484375 2.078125 -4.171875 C 1.910156 -3.867188 1.828125 -3.523438 1.828125 -3.140625 C 1.828125 -2.753906 1.910156 -2.40625 2.078125 -2.09375 C 2.242188 -1.789062 2.476562 -1.550781 2.78125 -1.375 C 3.082031 -1.207031 3.414062 -1.125 3.78125 -1.125 Z M 3.78125 -1.125 "/></g></g></g><g clip-path="url(#52139917b9)"><g transform="matrix(1, 0, 0, 1, 34, 13)"><g clip-path="url(#64dde00604)"><g fill="#f1c40f" fill-opacity="1"><g transform="translate(0.710941, 8.435094)"><g><path d="M 4.375 -2.359375 L 2.96875 -2.359375 L 2.96875 -0.96875 L 1.90625 -0.96875 L 1.90625 -2.359375 L 0.5 -2.359375 L 0.5 -3.34375 L 1.90625 -3.34375 L 1.90625 -4.734375 L 2.96875 -4.734375 L 2.96875 -3.34375 L 4.375 -3.34375 Z M 4.375 -2.359375 "/></g></g></g><g fill="#d29e27" fill-opacity="1"><g transform="translate(6.678124, 8.435094)"><g/></g></g><g fill="#ffffff" fill-opacity="1"><g transform="translate(10.069773, 8.435094)"><g><path d="M 5.6875 -5.703125 L 5.6875 0 L 5.1875 0 L 1.53125 -4.625 L 1.53125 0 L 0.921875 0 L 0.921875 -5.703125 L 1.421875 -5.703125 L 5.09375 -1.078125 L 5.09375 -5.703125 Z M 5.6875 -5.703125 "/></g></g></g><g fill="#ffffff" fill-opacity="1"><g transform="translate(17.770217, 8.435094)"><g><path d="M 4.953125 -0.515625 L 4.953125 0 L 0.921875 0 L 0.921875 -5.703125 L 4.828125 -5.703125 L 4.828125 -5.171875 L 1.53125 -5.171875 L 1.53125 -3.15625 L 4.484375 -3.15625 L 4.484375 -2.640625 L 1.53125 -2.640625 L 1.53125 -0.515625 Z M 4.953125 -0.515625 "/></g></g></g><g fill="#ffffff" fill-opacity="1"><g transform="translate(24.217103, 8.435094)"><g><path d="M 8.75 -5.703125 L 6.828125 0 L 6.1875 0 L 4.53125 -4.859375 L 2.84375 0 L 2.21875 0 L 0.296875 -5.703125 L 0.921875 -5.703125 L 2.5625 -0.796875 L 4.265625 -5.703125 L 4.828125 -5.703125 L 6.5 -0.765625 L 8.171875 -5.703125 Z M 8.75 -5.703125 "/></g></g></g><g fill="#ffffff" fill-opacity="1"><g transform="translate(34.221174, 8.435094)"><g><path d="M 2.5 0.046875 C 2.070312 0.046875 1.664062 -0.0195312 1.28125 -0.15625 C 0.894531 -0.289062 0.59375 -0.46875 0.375 -0.6875 L 0.625 -1.15625 C 0.820312 -0.945312 1.09375 -0.78125 1.4375 -0.65625 C 1.78125 -0.53125 2.132812 -0.46875 2.5 -0.46875 C 3.007812 -0.46875 3.390625 -0.5625 3.640625 -0.75 C 3.898438 -0.9375 4.03125 -1.175781 4.03125 -1.46875 C 4.03125 -1.695312 3.957031 -1.878906 3.8125 -2.015625 C 3.675781 -2.148438 3.507812 -2.253906 3.3125 -2.328125 C 3.113281 -2.398438 2.832031 -2.484375 2.46875 -2.578125 C 2.039062 -2.679688 1.695312 -2.78125 1.4375 -2.875 C 1.1875 -2.976562 0.96875 -3.132812 0.78125 -3.34375 C 0.601562 -3.550781 0.515625 -3.832031 0.515625 -4.1875 C 0.515625 -4.46875 0.59375 -4.726562 0.75 -4.96875 C 0.90625 -5.207031 1.140625 -5.394531 1.453125 -5.53125 C 1.765625 -5.675781 2.15625 -5.75 2.625 -5.75 C 2.945312 -5.75 3.265625 -5.703125 3.578125 -5.609375 C 3.890625 -5.523438 4.160156 -5.40625 4.390625 -5.25 L 4.1875 -4.765625 C 3.945312 -4.921875 3.691406 -5.035156 3.421875 -5.109375 C 3.148438 -5.191406 2.882812 -5.234375 2.625 -5.234375 C 2.125 -5.234375 1.742188 -5.132812 1.484375 -4.9375 C 1.234375 -4.75 1.109375 -4.503906 1.109375 -4.203125 C 1.109375 -3.972656 1.175781 -3.785156 1.3125 -3.640625 C 1.457031 -3.503906 1.632812 -3.398438 1.84375 -3.328125 C 2.050781 -3.253906 2.332031 -3.175781 2.6875 -3.09375 C 3.101562 -2.988281 3.441406 -2.882812 3.703125 -2.78125 C 3.960938 -2.6875 4.179688 -2.535156 4.359375 -2.328125 C 4.535156 -2.128906 4.625 -1.851562 4.625 -1.5 C 4.625 -1.21875 4.546875 -0.957031 4.390625 -0.71875 C 4.234375 -0.476562 3.992188 -0.289062 3.671875 -0.15625 C 3.359375 -0.0195312 2.96875 0.046875 2.5 0.046875 Z M 2.5 0.046875 "/></g></g></g><g fill="#ffffff" fill-opacity="1"><g transform="translate(40.309892, 8.435094)"><g><path d="M 0.921875 -5.703125 L 1.53125 -5.703125 L 1.53125 -0.515625 L 4.71875 -0.515625 L 4.71875 0 L 0.921875 0 Z M 0.921875 -5.703125 "/></g></g></g><g fill="#ffffff" fill-opacity="1"><g transform="translate(46.186973, 8.435094)"><g><path d="M 4.953125 -0.515625 L 4.953125 0 L 0.921875 0 L 0.921875 -5.703125 L 4.828125 -5.703125 L 4.828125 -5.171875 L 1.53125 -5.171875 L 1.53125 -3.15625 L 4.484375 -3.15625 L 4.484375 -2.640625 L 1.53125 -2.640625 L 1.53125 -0.515625 Z M 4.953125 -0.515625 "/></g></g></g><g fill="#ffffff" fill-opacity="1"><g transform="translate(52.715255, 8.435094)"><g><path d="M 2.03125 -5.171875 L 0.03125 -5.171875 L 0.03125 -5.703125 L 4.640625 -5.703125 L 4.640625 -5.171875 L 2.640625 -5.171875 L 2.640625 0 L 2.03125 0 Z M 2.03125 -5.171875 "/></g></g></g><g fill="#ffffff" fill-opacity="1"><g transform="translate(58.551628, 8.435094)"><g><path d="M 2.03125 -5.171875 L 0.03125 -5.171875 L 0.03125 -5.703125 L 4.640625 -5.703125 L 4.640625 -5.171875 L 2.640625 -5.171875 L 2.640625 0 L 2.03125 0 Z M 2.03125 -5.171875 "/></g></g></g><g fill="#ffffff" fill-opacity="1"><g transform="translate(64.306605, 8.435094)"><g><path d="M 4.953125 -0.515625 L 4.953125 0 L 0.921875 0 L 0.921875 -5.703125 L 4.828125 -5.703125 L 4.828125 -5.171875 L 1.53125 -5.171875 L 1.53125 -3.15625 L 4.484375 -3.15625 L 4.484375 -2.640625 L 1.53125 -2.640625 L 1.53125 -0.515625 Z M 4.953125 -0.515625 "/></g></g></g><g fill="#ffffff" fill-opacity="1"><g transform="translate(70.834887, 8.435094)"><g><path d="M 4.8125 0 L 3.515625 -1.828125 C 3.367188 -1.816406 3.21875 -1.8125 3.0625 -1.8125 L 1.53125 -1.8125 L 1.53125 0 L 0.921875 0 L 0.921875 -5.703125 L 3.0625 -5.703125 C 3.789062 -5.703125 4.359375 -5.523438 4.765625 -5.171875 C 5.179688 -4.828125 5.390625 -4.351562 5.390625 -3.75 C 5.390625 -3.300781 5.273438 -2.921875 5.046875 -2.609375 C 4.828125 -2.304688 4.507812 -2.085938 4.09375 -1.953125 L 5.484375 0 Z M 3.046875 -2.3125 C 3.609375 -2.3125 4.035156 -2.4375 4.328125 -2.6875 C 4.628906 -2.9375 4.78125 -3.289062 4.78125 -3.75 C 4.78125 -4.207031 4.628906 -4.554688 4.328125 -4.796875 C 4.035156 -5.046875 3.609375 -5.171875 3.046875 -5.171875 L 1.53125 -5.171875 L 1.53125 -2.3125 Z M 3.046875 -2.3125 "/></g></g></g><g fill="#ffffff" fill-opacity="1"><g transform="translate(77.802724, 8.435094)"><g><path d="M 2.5 0.046875 C 2.070312 0.046875 1.664062 -0.0195312 1.28125 -0.15625 C 0.894531 -0.289062 0.59375 -0.46875 0.375 -0.6875 L 0.625 -1.15625 C 0.820312 -0.945312 1.09375 -0.78125 1.4375 -0.65625 C 1.78125 -0.53125 2.132812 -0.46875 2.5 -0.46875 C 3.007812 -0.46875 3.390625 -0.5625 3.640625 -0.75 C 3.898438 -0.9375 4.03125 -1.175781 4.03125 -1.46875 C 4.03125 -1.695312 3.957031 -1.878906 3.8125 -2.015625 C 3.675781 -2.148438 3.507812 -2.253906 3.3125 -2.328125 C 3.113281 -2.398438 2.832031 -2.484375 2.46875 -2.578125 C 2.039062 -2.679688 1.695312 -2.78125 1.4375 -2.875 C 1.1875 -2.976562 0.96875 -3.132812 0.78125 -3.34375 C 0.601562 -3.550781 0.515625 -3.832031 0.515625 -4.1875 C 0.515625 -4.46875 0.59375 -4.726562 0.75 -4.96875 C 0.90625 -5.207031 1.140625 -5.394531 1.453125 -5.53125 C 1.765625 -5.675781 2.15625 -5.75 2.625 -5.75 C 2.945312 -5.75 3.265625 -5.703125 3.578125 -5.609375 C 3.890625 -5.523438 4.160156 -5.40625 4.390625 -5.25 L 4.1875 -4.765625 C 3.945312 -4.921875 3.691406 -5.035156 3.421875 -5.109375 C 3.148438 -5.191406 2.882812 -5.234375 2.625 -5.234375 C 2.125 -5.234375 1.742188 -5.132812 1.484375 -4.9375 C 1.234375 -4.75 1.109375 -4.503906 1.109375 -4.203125 C 1.109375 -3.972656 1.175781 -3.785156 1.3125 -3.640625 C 1.457031 -3.503906 1.632812 -3.398438 1.84375 -3.328125 C 2.050781 -3.253906 2.332031 -3.175781 2.6875 -3.09375 C 3.101562 -2.988281 3.441406 -2.882812 3.703125 -2.78125 C 3.960938 -2.6875 4.179688 -2.535156 4.359375 -2.328125 C 4.535156 -2.128906 4.625 -1.851562 4.625 -1.5 C 4.625 -1.21875 4.546875 -0.957031 4.390625 -0.71875 C 4.234375 -0.476562 3.992188 -0.289062 3.671875 -0.15625 C 3.359375 -0.0195312 2.96875 0.046875 2.5 0.046875 Z M 2.5 0.046875 "/></g></g></g></g></g></g></g></g></svg>